<?xml version="1.0" standalone="no"?>
<!DOCTYPE svg PUBLIC "-//W3C//DTD SVG 20010904//EN"
 "http://www.w3.org/TR/2001/REC-SVG-20010904/DTD/svg10.dtd">
<svg version="1.0" xmlns="http://www.w3.org/2000/svg"
 width="512.000000pt" height="512.000000pt" viewBox="0 0 512.000000 512.000000"
 preserveAspectRatio="xMidYMid meet">

<g transform="translate(0.000000,512.000000) scale(0.100000,-0.100000)"
fill="#ffffff" stroke="none">
<path d="M2480 5027 c-49 -16 -133 -102 -148 -153 -8 -27 -12 -117 -12 -258
l0 -216 -1016 0 c-769 0 -1027 -3 -1058 -12 -55 -16 -138 -99 -154 -154 -18
-60 -18 -3928 0 -3988 16 -55 99 -138 154 -154 32 -9 538 -12 2218 -12 l2176
0 0 507 0 506 55 111 c94 192 151 388 174 598 6 54 11 232 11 396 l0 300 30
12 c42 17 104 90 118 138 17 57 17 2168 0 2224 -6 22 -31 62 -55 88 -77 86 17
80 -1297 79 -816 -1 -1171 -4 -1196 -12z m2375 -172 l25 -24 0 -1068 c0 -587
-4 -1074 -9 -1081 -6 -10 -22 0 -62 40 -71 70 -159 96 -232 69 -22 -9 -26 -6
-43 31 -45 100 -183 164 -277 129 -22 -9 -26 -6 -43 31 -24 53 -93 112 -149
128 -26 7 -66 10 -95 7 l-50 -6 0 141 c0 79 -5 158 -12 180 -14 48 -76 121
-118 138 l-30 12 0 258 0 258 30 12 c68 28 130 129 130 210 0 125 -114 240
-238 240 -126 0 -242 -115 -242 -240 0 -81 62 -182 130 -210 l30 -12 0 -258 0
-258 -30 -12 c-42 -17 -104 -90 -118 -138 -8 -27 -12 -156 -12 -416 l0 -376
-79 0 -79 0 -7 47 c-8 53 -41 125 -79 170 -14 16 -53 45 -88 63 -54 29 -73 34
-135 34 -77 1 -106 -12 -147 -68 -18 -23 -22 -45 -24 -137 l-4 -109 -134 0
c-130 0 -136 1 -159 25 l-25 24 0 1071 0 1071 25 24 24 25 1151 0 1151 0 24
-25z m-1120 -480 c16 -15 25 -36 25 -55 0 -19 -9 -40 -25 -55 -15 -16 -36 -25
-55 -25 -19 0 -40 9 -55 25 -16 15 -25 36 -25 55 0 19 9 40 25 55 15 16 36 25
55 25 19 0 40 -9 55 -25z m-1415 -535 l0 -400 -1040 0 -1040 0 0 375 0 376 25
24 24 25 1016 0 1015 0 0 -400z m1415 -425 l25 -24 0 -656 0 -655 80 0 80 0 0
415 0 416 25 24 c32 33 78 33 110 0 l25 -24 0 -416 0 -415 80 0 80 0 0 335 0
336 25 24 c32 33 78 33 110 0 l25 -24 0 -336 0 -335 80 0 80 0 0 255 0 256 25
24 c32 33 78 33 111 0 l26 -26 -4 -397 c-4 -363 -6 -406 -27 -506 -28 -137
-70 -264 -128 -389 l-46 -97 -638 0 -638 0 -40 56 c-60 83 -127 219 -165 335
-69 206 -69 206 -73 733 l-5 479 34 -7 c39 -7 73 -31 102 -70 20 -26 21 -44
26 -329 6 -342 7 -346 86 -416 66 -58 142 -74 228 -49 55 16 138 99 154 154 9
31 12 206 12 673 l0 632 25 24 c15 16 36 25 55 25 19 0 40 -9 55 -25z m-1415
-215 l0 -80 -960 0 -960 0 0 -560 0 -560 1199 0 1198 0 7 -52 c3 -29 6 -65 6
-80 l0 -28 -485 0 -485 0 0 -240 0 -240 558 0 557 0 28 -53 c15 -30 52 -91 82
-136 l55 -82 0 -424 0 -425 -1415 0 -1416 0 -24 25 -25 24 0 1496 0 1495 1040
0 1040 0 0 -80z m0 -376 c0 -170 9 -204 75 -269 65 -66 99 -75 269 -75 l136 0
0 -160 0 -160 -1120 0 -1120 0 0 400 0 400 880 0 880 0 0 -136z m1120 -519 c0
-173 0 -176 -25 -200 -15 -16 -36 -25 -55 -25 -19 0 -40 9 -55 25 -25 24 -25
27 -25 200 l0 175 80 0 80 0 0 -175z m-575 -707 l22 -78 -444 0 -443 0 0 80 0
80 421 -2 421 -3 23 -77z m1615 -958 l0 -400 -600 0 -600 0 0 400 0 400 600 0
600 0 0 -400z"/>
<path d="M2800 4311 l0 -249 -30 -12 c-68 -28 -130 -129 -130 -210 0 -81 62
-182 130 -210 l30 -12 0 -249 0 -249 80 0 80 0 0 249 0 249 30 12 c68 28 130
129 130 210 0 81 -62 182 -130 210 l-30 12 0 249 0 249 -80 0 -80 0 0 -249z
m135 -416 c16 -15 25 -36 25 -55 0 -19 -9 -40 -25 -55 -15 -16 -36 -25 -55
-25 -19 0 -40 9 -55 25 -16 15 -25 36 -25 55 0 19 9 40 25 55 15 16 36 25 55
25 19 0 40 -9 55 -25z"/>
<path d="M4400 4471 l0 -89 -30 -12 c-68 -28 -130 -129 -130 -210 0 -81 62
-182 130 -210 l30 -12 0 -409 0 -409 80 0 80 0 0 409 0 409 30 12 c68 28 130
129 130 210 0 81 -62 182 -130 210 l-30 12 0 89 0 89 -80 0 -80 0 0 -89z m135
-256 c16 -15 25 -36 25 -55 0 -19 -9 -40 -25 -55 -15 -16 -36 -25 -55 -25 -19
0 -40 9 -55 25 -16 15 -25 36 -25 55 0 19 9 40 25 55 15 16 36 25 55 25 19 0
40 -9 55 -25z"/>
<path d="M400 3840 l0 -240 240 0 240 0 0 240 0 240 -240 0 -240 0 0 -240z
m320 0 l0 -80 -80 0 -80 0 0 80 0 80 80 0 80 0 0 -80z"/>
<path d="M1040 3840 l0 -240 240 0 240 0 0 240 0 240 -240 0 -240 0 0 -240z
m320 0 l0 -80 -80 0 -80 0 0 80 0 80 80 0 80 0 0 -80z"/>
<path d="M1680 3840 l0 -240 240 0 240 0 0 240 0 240 -240 0 -240 0 0 -240z
m320 0 l0 -80 -80 0 -80 0 0 80 0 80 80 0 80 0 0 -80z"/>
<path d="M845 1668 c-90 -17 -204 -80 -279 -154 -299 -299 -175 -793 234 -930
76 -26 244 -26 320 0 185 62 314 192 376 376 26 76 26 244 0 320 -53 156 -153
274 -289 339 -120 58 -234 73 -362 49z m35 -336 l0 -177 -128 -128 -129 -128
-29 63 c-25 55 -29 75 -29 158 0 86 3 101 32 162 42 90 100 150 186 193 38 19
76 35 83 35 11 0 14 -34 14 -178z m257 143 c42 -21 88 -54 112 -81 39 -42 101
-153 101 -181 0 -10 -38 -13 -155 -13 l-155 0 0 155 c0 124 3 155 14 155 7 0
45 -16 83 -35z m213 -449 c0 -7 -16 -45 -35 -83 -43 -86 -103 -144 -193 -186
-61 -29 -76 -32 -162 -32 -83 0 -103 4 -158 29 l-63 29 128 129 128 128 177 0
c144 0 178 -3 178 -14z"/>
<path d="M1840 1120 l0 -80 160 0 160 0 0 80 0 80 -160 0 -160 0 0 -80z"/>
<path d="M2320 1120 l0 -80 320 0 320 0 0 80 0 80 -320 0 -320 0 0 -80z"/>
<path d="M1840 800 l0 -80 560 0 560 0 0 80 0 80 -560 0 -560 0 0 -80z"/>
<path d="M1840 480 l0 -80 160 0 160 0 0 80 0 80 -160 0 -160 0 0 -80z"/>
<path d="M2320 480 l0 -80 320 0 320 0 0 80 0 80 -320 0 -320 0 0 -80z"/>
</g>
</svg>
