<?xml version="1.0" standalone="no"?>
<!DOCTYPE svg PUBLIC "-//W3C//DTD SVG 20010904//EN"
 "http://www.w3.org/TR/2001/REC-SVG-20010904/DTD/svg10.dtd">
<svg version="1.0" xmlns="http://www.w3.org/2000/svg"
 width="512.000000pt" height="512.000000pt" viewBox="0 0 512.000000 512.000000"
 preserveAspectRatio="xMidYMid meet">

<g transform="translate(0.000000,512.000000) scale(0.100000,-0.100000)"
fill="#ffffff" stroke="none">
<path d="M4090 5026 c-187 -40 -340 -130 -460 -271 -226 -267 -252 -656 -61
-947 242 -371 738 -478 1103 -239 428 280 492 876 132 1235 -103 104 -222 171
-374 213 -78 21 -260 26 -340 9z m285 -161 c215 -45 409 -223 478 -440 31 -99
31 -271 0 -370 -63 -199 -229 -365 -428 -428 -99 -31 -271 -31 -370 0 -197 62
-365 230 -426 423 -11 36 -23 106 -26 155 -24 419 358 746 772 660z"/>
<path d="M4146 4704 c-70 -22 -149 -103 -170 -174 -27 -91 -28 -90 63 -90 79
0 79 0 86 29 3 15 20 41 36 57 25 24 39 29 79 29 43 0 54 -5 82 -33 28 -28 33
-39 33 -82 0 -65 -37 -105 -110 -119 -76 -14 -85 -31 -85 -167 l0 -114 80 0
80 0 0 65 0 65 43 21 c124 62 182 198 143 334 -14 45 -29 69 -70 110 -80 80
-178 103 -290 69z"/>
<path d="M4160 3840 l0 -80 80 0 80 0 0 80 0 80 -80 0 -80 0 0 -80z"/>
<path d="M3155 3271 l-220 -220 -545 156 c-459 131 -549 154 -572 145 -24 -9
-1066 -880 -1067 -892 0 -3 23 -31 52 -63 l52 -57 503 425 503 426 544 -155
c300 -86 555 -156 567 -156 16 0 96 73 270 247 136 136 248 252 248 258 0 13
-92 105 -105 105 -6 0 -109 -99 -230 -219z"/>
<path d="M3945 3015 c-25 -24 -25 -27 -25 -200 l0 -175 80 0 80 0 0 120 0 120
160 0 160 0 0 -120 0 -120 80 0 80 0 0 175 c0 173 0 176 -25 200 l-24 25 -271
0 -271 0 -24 -25z"/>
<path d="M1705 2375 l-25 -24 0 -976 0 -975 80 0 80 0 0 920 0 920 160 0 160
0 0 -920 0 -920 80 0 80 0 0 975 0 976 -25 24 -24 25 -271 0 -271 0 -24 -25z"/>
<path d="M3920 2240 l0 -160 80 0 80 0 0 160 0 160 -80 0 -80 0 0 -160z"/>
<path d="M4400 2240 l0 -160 80 0 80 0 0 160 0 160 -80 0 -80 0 0 -160z"/>
<path d="M2825 1895 l-25 -24 0 -736 0 -735 80 0 80 0 0 680 0 680 160 0 160
0 0 -680 0 -680 80 0 80 0 0 735 0 736 -25 24 -24 25 -271 0 -271 0 -24 -25z"/>
<path d="M3920 1680 l0 -160 80 0 80 0 0 160 0 160 -80 0 -80 0 0 -160z"/>
<path d="M4400 1680 l0 -160 80 0 80 0 0 160 0 160 -80 0 -80 0 0 -160z"/>
<path d="M585 1495 l-25 -24 0 -536 0 -535 80 0 80 0 0 480 0 480 160 0 160 0
0 -480 0 -480 80 0 80 0 0 535 0 536 -25 24 -24 25 -271 0 -271 0 -24 -25z"/>
<path d="M3920 1120 l0 -160 80 0 80 0 0 160 0 160 -80 0 -80 0 0 -160z"/>
<path d="M4400 1120 l0 -160 80 0 80 0 0 160 0 160 -80 0 -80 0 0 -160z"/>
<path d="M3920 560 l0 -160 80 0 80 0 0 160 0 160 -80 0 -80 0 0 -160z"/>
<path d="M4400 560 l0 -160 80 0 80 0 0 160 0 160 -80 0 -80 0 0 -160z"/>
<path d="M80 160 l0 -80 2480 0 2480 0 0 80 0 80 -2480 0 -2480 0 0 -80z"/>
</g>
</svg>
