<svg
        width="28"
        height="28"
        viewBox="0 0 28 28"
        fill="none"
        xmlns="http://www.w3.org/2000/svg">
    <g>
        <path
                d="M9.89844 16.4609C9.44541 16.4609 9.07812 16.8282 9.07812 17.2812V18.9219C9.07812 19.3749 9.44541 19.7422 9.89844 19.7422C10.3515 19.7422 10.7188 19.3749 10.7188 18.9219V17.2812C10.7188 16.8282 10.3515 16.4609 9.89844 16.4609Z"
                fill="#9467FE"
        />
        <path
                d="M18.1016 19.7422C18.5546 19.7422 18.9219 19.3749 18.9219 18.9219V17.2812C18.9219 16.8282 18.5546 16.4609 18.1016 16.4609C17.6485 16.4609 17.2812 16.8282 17.2812 17.2812V18.9219C17.2812 19.3749 17.6485 19.7422 18.1016 19.7422Z"
                fill="#9467FE"
        />
        <path
                d="M14.875 5.79688H23.8438C24.2968 5.79688 24.6641 5.42959 24.6641 4.97656C24.6641 4.52353 24.2968 4.15625 23.8438 4.15625H14.875C14.422 4.15625 14.0547 4.52353 14.0547 4.97656C14.0547 5.42959 14.422 5.79688 14.875 5.79688Z"
                fill="#9467FE"
        />
        <path
                d="M28 9.625V3.55469C28 1.59463 26.4054 0 24.4453 0H14.2734C12.3134 0 10.7188 1.59463 10.7188 3.55469V9.89844H9.625C6.62665 9.89844 4.11201 12.0077 3.48605 14.8203H3.33594V9.75734C4.29073 9.41872 4.97656 8.50691 4.97656 7.4375C4.97656 6.08054 3.87259 4.97656 2.51562 4.97656C1.15866 4.97656 0.0546875 6.08054 0.0546875 7.4375C0.0546875 8.50691 0.740523 9.41872 1.69531 9.75734V14.9429C0.712195 15.2656 0 16.1915 0 17.2812V20.5625C0 21.9195 1.10398 23.0234 2.46094 23.0234H3.47413C4.07947 25.8633 6.60723 28 9.625 28H18.375C21.3928 28 23.9205 25.8633 24.5259 23.0234H25.5391C26.896 23.0234 28 21.9195 28 20.5625V17.2812C28 15.9243 26.896 14.8203 25.5391 14.8203H24.5136C24.3861 14.2472 24.1792 13.695 23.8985 13.1797H24.4453C26.4054 13.1797 28 11.5851 28 9.625ZM12.3594 3.55469C12.3594 2.49927 13.218 1.64062 14.2734 1.64062H24.4453C25.5007 1.64062 26.3594 2.49927 26.3594 3.55469V9.625C26.3594 10.6804 25.5007 11.5391 24.4453 11.5391H14.8203C14.6929 11.5391 14.5674 11.5687 14.4535 11.6256L12.3594 12.6727V3.55469ZM2.51562 6.61719C2.96795 6.61719 3.33594 6.98518 3.33594 7.4375C3.33594 7.88982 2.96795 8.25781 2.51562 8.25781C2.0633 8.25781 1.69531 7.88982 1.69531 7.4375C1.69531 6.98518 2.0633 6.61719 2.51562 6.61719ZM1.64062 20.5625V17.2812C1.64062 16.8289 2.00862 16.4609 2.46094 16.4609H3.33594V21.3828H2.46094C2.00862 21.3828 1.64062 21.0148 1.64062 20.5625ZM26.3594 17.2812V20.5625C26.3594 21.0148 25.9914 21.3828 25.5391 21.3828H24.6641V16.4609H25.5391C25.9914 16.4609 26.3594 16.8289 26.3594 17.2812ZM23.0234 16.1875V21.7109C23.0234 24.2741 20.9381 26.3594 18.375 26.3594H9.625C7.06185 26.3594 4.97656 24.2741 4.97656 21.7109V16.1875C4.97656 13.6244 7.06185 11.5391 9.625 11.5391H10.7188V14C10.7188 14.6088 11.3609 15.0062 11.9059 14.7337L15.014 13.1797H21.9178C22.6308 14.0188 23.0234 15.083 23.0234 16.1875Z"
                fill="#9467FE"
        />
        <path
                d="M14.875 9.07812H23.8438C24.2968 9.07812 24.6641 8.71084 24.6641 8.25781C24.6641 7.80478 24.2968 7.4375 23.8438 7.4375H14.875C14.422 7.4375 14.0547 7.80478 14.0547 8.25781C14.0547 8.71084 14.422 9.07812 14.875 9.07812Z"
                fill="#9467FE"
        />
        <path
                d="M11.5391 22.2031C11.5391 22.6562 11.9063 23.0234 12.3594 23.0234H15.6406C16.0937 23.0234 16.4609 22.6562 16.4609 22.2031C16.4609 21.7501 16.0937 21.3828 15.6406 21.3828H12.3594C11.9063 21.3828 11.5391 21.7501 11.5391 22.2031Z"
                fill="#9467FE"
        />
    </g>
    <defs>
        <clipPath id="clip0_13_226">
            <rect width="28" height="28" fill="white" />
        </clipPath>
    </defs>
</svg>