<svg
        width="28"
        height="28"
        viewBox="0 0 28 28"
        fill="none"
        xmlns="http://www.w3.org/2000/svg">
    <path
            d="M27.8654 11.2886C27.6617 10.8975 27.2671 10.6642 26.8314 10.6796L23.6728 10.7919L23.5637 9.31193C23.5308 8.86584 23.2567 8.4879 22.8484 8.32559C22.4509 8.16754 22.0059 8.24984 21.6879 8.54073L19.0979 10.9085L20.3531 5.72125C20.4581 5.28742 20.3136 4.84117 19.976 4.55668C19.651 4.2828 19.2077 4.21712 18.8194 4.38491L16.866 5.22928L15.0274 1.06597C14.8427 0.647938 14.4491 0.388336 13.9998 0.388336C13.5507 0.388336 13.157 0.648048 12.9725 1.06602L11.1339 5.22928L9.18048 4.38491C8.79214 4.21702 8.34896 4.28297 8.02395 4.55668C7.68631 4.84111 7.54177 5.28731 7.64677 5.72125L8.90201 10.9087L6.3119 8.54073C5.99383 8.2499 5.54911 8.16754 5.15132 8.32559C4.74296 8.4879 4.46887 8.86584 4.43606 9.31193L4.32701 10.7919L1.16842 10.6796C0.734964 10.6643 0.338151 10.8974 0.13433 11.2886C-0.0763263 11.6928 -0.0374981 12.1691 0.235557 12.5318L2.22597 15.1748L1.01836 16.269C0.723644 16.5361 0.588238 16.9323 0.656324 17.3289C0.72348 17.7205 0.978762 18.0443 1.33893 18.1951L6.24119 20.2469L5.64542 21.314C5.46747 21.6327 5.44936 22.0228 5.59697 22.3574C5.74298 22.6882 6.02539 22.9247 6.37183 23.006L13.3557 24.6458V24.6854V26.9676C13.3557 27.3233 13.6441 27.6116 13.9997 27.6116C14.3555 27.6116 14.6438 27.3232 14.6438 26.9676V24.6854V24.6455L21.6262 23.006C21.9726 22.9247 22.2551 22.6882 22.401 22.3574C22.5486 22.0228 22.5305 21.6327 22.3526 21.314L21.7572 20.2473L26.6604 18.1951C27.0206 18.0443 27.2759 17.7205 27.3431 17.3289C27.4111 16.9323 27.2757 16.5361 26.981 16.269L25.7734 15.1748L27.7638 12.5319C28.0373 12.1691 28.0761 11.6927 27.8654 11.2886ZM24.6777 14.4887C24.3186 14.9656 24.3823 15.6521 24.8231 16.0515L25.9677 17.0886L20.6236 19.3254C20.4952 19.372 20.3824 19.4592 20.3047 19.5776C20.1731 19.7782 20.1639 20.0353 20.2809 20.2448L21.1465 21.7954L14.644 23.3221V19.7742L20.4372 16.3713C20.744 16.1912 20.8465 15.7965 20.6664 15.4897C20.4863 15.1831 20.0918 15.0803 19.7848 15.2606L14.644 18.2802V10.4398C14.644 10.084 14.3557 9.7957 14 9.7957C13.6444 9.7957 13.3559 10.0841 13.3559 10.4398V18.2988L8.18353 15.2606C7.87684 15.0805 7.48205 15.1831 7.30196 15.4898C7.12177 15.7965 7.22436 16.1912 7.5311 16.3714L13.3559 19.7928V23.3225L6.8521 21.7955L7.71781 20.2449C7.86109 19.9883 7.81231 19.6671 7.59935 19.4645C7.53772 19.4058 7.46679 19.3613 7.39127 19.3316L2.03237 17.0887L3.17704 16.0516C3.61771 15.6522 3.68148 14.9657 3.32229 14.4887L1.43136 11.9778L4.43863 12.0848C5.04746 12.1068 5.55628 11.6392 5.60194 11.0209L5.69748 9.72411L9.58976 13.2825C9.82388 13.4966 10.1789 13.5082 10.4265 13.31C10.6289 13.1482 10.7103 12.8857 10.6476 12.6449L8.966 5.69544L10.7817 6.48032C11.3412 6.72225 11.9992 6.45893 12.2487 5.89374L14 1.92807L15.7512 5.89368C16.0008 6.45893 16.6588 6.72209 17.2182 6.48032L19.0339 5.69544L17.3539 12.6385C17.2945 12.8581 17.3539 13.1016 17.5275 13.2698C17.7721 13.5067 18.1589 13.5123 18.4102 13.2825L22.3025 9.72406L22.398 11.0209C22.4437 11.6391 22.9537 12.1059 23.5612 12.0848L26.5686 11.9778L24.6777 14.4887Z"
            fill="#9467FE"
    />
</svg>