<?xml version="1.0" standalone="no"?>
<!DOCTYPE svg PUBLIC "-//W3C//DTD SVG 20010904//EN"
 "http://www.w3.org/TR/2001/REC-SVG-20010904/DTD/svg10.dtd">
<svg version="1.0" xmlns="http://www.w3.org/2000/svg"
 width="512.000000pt" height="512.000000pt" viewBox="0 0 512.000000 512.000000"
 preserveAspectRatio="xMidYMid meet">

<g transform="translate(0.000000,512.000000) scale(0.100000,-0.100000)"
fill="#ffffff" stroke="none">
<path d="M3139 5107 c-62 -23 -108 -57 -137 -100 -39 -57 -44 -71 -51 -147
l-6 -65 -422 -213 -423 -213 -35 27 c-47 35 -99 53 -161 54 -102 0 -186 -48
-236 -137 l-30 -53 -398 0 -398 0 -13 32 c-38 91 -141 158 -244 158 -201 0
-330 -209 -239 -388 35 -68 94 -116 170 -138 120 -35 259 30 310 145 l18 41
398 0 398 0 14 -34 c39 -95 139 -159 246 -159 77 0 122 17 180 69 56 51 82
105 88 184 l4 65 422 214 421 214 59 -36 c111 -68 209 -61 329 25 15 11 75
-16 442 -202 l425 -215 0 -51 c0 -151 116 -267 265 -267 151 0 268 115 267
266 0 75 -17 121 -69 177 -96 108 -272 120 -371 27 l-23 -21 -77 39 c-43 22
-235 120 -428 217 l-350 177 4 34 c11 92 -60 212 -152 259 -51 26 -148 33
-197 15z m131 -150 c32 -16 70 -73 70 -106 0 -38 -35 -89 -74 -107 -70 -34
-152 14 -163 94 -12 90 85 160 167 119z m-2598 -696 c54 -61 30 -154 -48 -187
-43 -18 -88 -8 -123 27 -51 50 -46 126 11 174 28 24 39 27 82 22 40 -3 55 -11
78 -36z m1288 24 c41 -21 64 -68 57 -118 -14 -101 -144 -139 -207 -60 -81 103
33 238 150 178z m2649 -11 c55 -46 59 -124 10 -173 -52 -52 -130 -46 -177 14
-43 54 -20 150 42 175 43 18 93 11 125 -16z"/>
<path d="M2663 4156 l-28 -24 -3 -1854 c-2 -1019 0 -1872 3 -1896 4 -24 15
-51 28 -62 20 -19 36 -20 553 -20 522 0 532 0 558 21 l26 20 0 1895 0 1895
-25 24 -24 25 -530 0 -530 0 -28 -24z m987 -1916 l0 -1790 -430 0 -430 0 0
1790 0 1790 430 0 430 0 0 -1790z"/>
<path d="M1340 3740 c-20 -20 -20 -33 -20 -1709 l0 -1690 26 -20 c26 -21 36
-21 558 -21 517 0 533 1 553 20 13 11 24 38 28 62 3 24 5 530 3 1124 -3 1048
-4 1083 -22 1103 -26 29 -86 29 -112 0 -18 -20 -19 -55 -22 -1090 l-2 -1069
-430 0 -430 0 0 1580 0 1580 430 0 429 0 3 -389 c3 -366 4 -390 22 -410 26
-29 86 -29 112 0 18 20 19 43 19 466 l0 445 -24 19 c-22 18 -46 19 -562 19
-526 0 -539 0 -559 -20z"/>
<path d="M3971 2904 l-21 -27 2 -1269 3 -1270 24 -19 c22 -18 46 -19 558 -19
l534 0 24 25 25 24 0 1269 c0 1262 0 1268 -20 1290 l-21 22 -544 0 -544 0 -20
-26z m999 -1289 l0 -1165 -435 0 -435 0 0 1165 0 1165 435 0 435 0 0 -1165z"/>
<path d="M25 1255 l-25 -24 0 -441 0 -441 25 -24 24 -25 534 0 c512 0 536 1
558 19 l24 19 3 433 c2 298 -1 442 -8 460 -6 14 -23 31 -36 38 -18 8 -181 11
-550 11 l-525 0 -24 -25z m995 -465 l0 -340 -435 0 -435 0 0 340 0 340 435 0
435 0 0 -340z"/>
<path d="M25 125 c-14 -13 -25 -36 -25 -50 0 -14 11 -37 25 -50 l24 -25 2511
0 2511 0 24 25 c32 31 32 69 0 100 l-24 25 -2511 0 -2511 0 -24 -25z"/>
</g>
</svg>
